<?xml version="1.0" encoding="UTF-8" standalone="no"?><!-- Generator: Gravit.io --><svg xmlns="http://www.w3.org/2000/svg" xmlns:xlink="http://www.w3.org/1999/xlink" style="isolation:isolate" viewBox="243.339 190.199 326.491 153.4" width="326.491pt" height="153.4pt"><g><path d=" M 466.306 341.579 C 465.776 337.715 465.131 333.867 464.671 329.994 C 463.189 317.505 461.772 305.008 460.328 292.513 C 459.013 281.137 457.698 269.761 456.38 258.385 C 454.924 245.826 453.46 233.268 452.007 220.709 C 450.851 210.714 449.716 200.716 448.525 190.725 C 448.506 190.568 448.436 190.38 448.341 190.199 L 444.1 190.199 C 443.884 190.382 443.671 190.591 443.464 190.86 C 433.154 204.264 422.736 217.577 412.349 230.916 C 409.245 234.901 406.137 238.882 402.964 242.952 C 402.509 242.433 402.166 242.048 401.829 241.655 C 390.927 228.954 380.025 216.253 369.124 203.551 C 365.405 199.219 361.648 194.921 357.996 190.529 C 357.895 190.408 357.791 190.301 357.687 190.199 L 354.318 190.199 C 354.112 190.686 353.984 191.338 353.916 191.838 C 353.448 195.313 353.095 198.806 352.677 202.289 C 350.078 223.909 347.474 245.529 344.87 267.148 C 342.099 290.148 339.325 313.147 336.558 336.147 C 336.262 338.605 336.004 341.069 335.721 343.595 L 337.313 343.595 C 337.313 343.596 337.313 343.598 337.313 343.599 L 376.401 343.599 C 376.156 342.838 375.935 342.147 375.712 341.457 C 371.123 327.239 366.535 313.021 361.946 298.803 C 361.348 296.95 360.787 295.222 360.262 293.61 C 354.107 274.74 351.066 254.975 351.555 235.133 C 351.558 235.001 351.561 234.869 351.565 234.736 C 362.471 247.145 373.193 259.346 384.022 271.667 C 395.72 256.852 407.278 242.214 419.107 227.231 C 419.249 228.225 419.321 228.669 419.375 229.115 C 420.188 235.951 420.997 242.788 421.811 249.624 C 423.266 261.85 424.726 274.075 426.181 286.301 C 427.637 298.527 429.121 310.749 430.53 322.981 C 431.315 329.79 431.972 336.616 432.704 343.599 L 466.318 343.599 C 466.318 342.865 466.392 342.21 466.306 341.579 Z " fill="rgb(0,0,0)"/><path d=" M 278.098 339.488 C 278.098 300.947 278.073 262.406 278.119 223.866 C 278.129 215.656 278.563 207.445 281.152 199.535 C 282.066 196.744 283.33 194.057 284.52 191.373 L 244.629 191.373 C 245.94 194.524 247.339 197.647 248.323 200.884 C 250.646 208.529 250.975 216.44 250.987 224.341 C 251.029 252.09 251.036 279.84 250.973 307.589 C 250.962 312.454 250.734 317.333 250.274 322.178 C 249.665 328.584 248.291 334.853 245.117 340.637 C 244.572 341.631 243.949 342.587 243.339 343.599 L 328.746 343.599 C 328.972 333.916 329.195 324.371 329.423 314.63 C 315.218 328.891 298.444 337.902 278.098 341.744 L 278.098 339.488 Z " fill="rgb(0,0,0)"/><path d=" M 569.123 192.069 C 569.353 191.832 569.595 191.606 569.83 191.373 L 568.339 191.373 L 530.476 191.373 L 528.447 191.373 C 528.962 192.641 529.486 193.905 529.997 195.173 C 528.557 205.483 525.828 215.468 521.91 225.141 C 516.697 238.011 509.683 249.768 500.933 260.436 C 500.762 260.645 500.64 260.896 500.495 261.128 C 500.401 261.06 500.307 260.992 500.214 260.924 L 500.214 213.991 C 500.606 209.176 501.38 204.405 502.871 199.736 C 503.785 196.877 505.049 194.123 506.239 191.373 L 500.214 191.373 L 471.794 191.373 L 466.348 191.373 C 467.659 194.601 469.058 197.801 470.042 201.118 C 470.842 203.814 471.399 206.544 471.794 209.294 L 471.794 343.582 L 500.256 343.582 L 500.256 342.314 C 500.256 316.283 500.259 290.253 500.237 264.222 C 500.237 263.443 500.48 262.912 500.994 262.382 C 509.096 254.035 517.185 245.677 525.273 237.317 C 526.414 236.137 527.534 234.936 528.663 233.744 C 528.745 233.786 528.827 233.827 528.909 233.868 L 528.909 343.599 L 567.998 343.599 C 567.753 342.838 567.531 342.148 567.308 341.457 C 562.72 327.239 558.131 313.021 553.543 298.803 C 550.099 288.133 546.653 277.464 543.213 266.793 C 539.439 255.087 535.676 243.378 531.889 231.677 C 531.687 231.052 531.71 230.65 532.203 230.142 C 544.521 217.463 556.814 204.758 569.123 192.069 Z " fill="rgb(0,0,0)"/></g></svg>