<?xml version="1.0" encoding="UTF-8" standalone="no"?><!-- Generator: Gravit.io --><svg xmlns="http://www.w3.org/2000/svg" xmlns:xlink="http://www.w3.org/1999/xlink" style="isolation:isolate" viewBox="0 0 841.89 595.276" width="841.89pt" height="595.276pt"><clipPath id="_clipPath_PE9nyzU4lxSqZQqPSO0ZyiN7HFkTYjdX"><rect x="0" y="0" width="841.89" height="595.276" transform="matrix(1,0,0,1,0,0)" fill="rgb(255,255,255)"/></clipPath><g clip-path="url(#_clipPath_PE9nyzU4lxSqZQqPSO0ZyiN7HFkTYjdX)"><path d="M 82.5 130.14 L 759.39 130.14 C 771.808 130.14 781.89 140.222 781.89 152.64 L 781.89 442.64 C 781.89 455.058 771.808 465.14 759.39 465.14 L 82.5 465.14 C 70.082 465.14 60 455.058 60 442.64 L 60 152.64 C 60 140.222 70.082 130.14 82.5 130.14 Z" style="stroke:none;fill:#FBC7D7;stroke-miterlimit:10;"/><g><g><path d=" M 515.937 409.893 C 516.14 406.852 517.195 403.658 519.294 400.847 C 519.679 400.331 520.171 399.852 520.708 399.495 C 522.393 398.379 524.441 399.134 525.063 401.045 C 526.242 404.67 525.141 407.463 521.823 409.547 C 521.504 409.749 521.386 410.504 521.449 410.965 C 521.477 411.172 522.262 411.501 522.573 411.394 C 523.337 411.132 524.08 410.725 524.734 410.244 C 526.222 409.148 527.651 407.975 529.105 406.834 C 530.087 406.064 531.313 406.088 531.97 406.893 C 532.587 407.648 532.452 408.432 531.348 409.286 C 529.369 410.817 527.36 412.314 525.294 413.722 C 524.425 414.314 523.407 414.733 522.403 415.076 C 518.523 416.405 515.882 414.447 515.937 409.893 Z " fill="rgb(0,0,0)"/><path d=" M 380.785 378.564 C 379.323 377.962 379.194 376.646 379.052 375.455 C 378.474 370.624 380.531 366.675 383.422 363.046 C 383.571 362.859 383.91 362.739 384.163 362.735 C 385.762 362.709 387.361 362.724 389.247 362.725 C 389.06 364.175 388.955 365.54 388.701 366.877 C 387.159 374.997 384.69 382.861 382.153 390.713 C 379.365 399.344 376.791 408.042 375.403 417.032 C 374.914 420.199 374.582 423.393 375.204 426.589 C 375.786 429.574 377.19 430.508 380.034 429.396 C 385.042 427.44 389.966 425.268 394.924 423.184 C 400.606 420.795 406.278 418.338 412.365 417.175 C 414.963 416.679 417.652 416.648 420.303 416.449 C 420.736 416.417 421.284 416.482 421.604 416.729 C 422.075 417.092 422.688 417.662 422.683 418.138 C 422.679 418.604 422.012 419.103 421.564 419.507 C 421.387 419.666 421.007 419.675 420.734 419.64 C 415.749 419.008 411.072 420.372 406.552 422.134 C 399.552 424.862 392.682 427.921 385.716 430.74 C 383.293 431.721 380.802 432.699 378.249 433.165 C 373.626 434.009 369.941 430.606 369.821 425.852 C 369.663 419.558 370.508 413.374 372.197 407.353 C 374.679 398.51 377.453 389.749 380.1 380.952 C 380.325 380.207 380.53 379.456 380.785 378.564 Z " fill="rgb(0,0,0)"/><path d=" M 427.459 409.061 C 425.734 410.065 424.22 411.049 422.612 411.842 C 421.636 412.322 420.532 412.657 419.453 412.788 C 417.179 413.062 415.497 411.88 415.028 409.635 C 414.79 408.498 414.808 407.267 414.937 406.103 C 415.236 403.409 416.214 400.926 417.76 398.701 C 418.265 397.975 418.914 397.281 419.644 396.792 C 421.138 395.793 423.116 396.442 423.779 398.026 C 425.207 401.437 423.993 405.051 420.739 406.778 C 419.865 407.242 420.032 407.877 420.318 408.393 C 420.464 408.656 421.314 408.83 421.62 408.653 C 423.07 407.813 424.431 406.819 425.847 405.915 C 427.46 404.885 428.206 403.515 428.509 401.541 C 429.215 396.924 430.286 392.363 431.206 387.779 C 431.261 387.504 431.284 387.223 431.345 386.773 C 429.239 387.095 427.227 387.396 425.217 387.713 C 422.297 388.175 419.388 388.726 416.455 389.068 C 415.66 389.161 414.616 388.859 413.993 388.358 C 412.309 387.005 412.696 385.226 414.811 384.751 C 417.329 384.185 419.905 383.852 422.468 383.516 C 425.524 383.116 428.589 382.779 431.657 382.504 C 432.502 382.428 432.803 382.09 433.102 381.342 C 434.914 376.815 436.764 372.302 438.705 367.829 C 438.992 367.168 439.745 366.527 440.431 366.262 C 441.435 365.876 442.482 366.183 443.195 367.093 C 443.862 367.944 443.668 368.824 443.266 369.755 C 441.722 373.331 440.221 376.925 438.714 380.516 C 438.561 380.881 438.472 381.273 438.298 381.827 C 440.307 381.681 442.139 381.517 443.976 381.422 C 448.86 381.168 453.746 380.943 458.632 380.713 C 458.959 380.697 459.295 380.689 459.615 380.746 C 460.487 380.903 461.05 381.408 461.032 382.327 C 461.015 383.258 460.46 383.725 459.533 383.775 C 457.152 383.904 454.764 383.962 452.393 384.191 C 447.568 384.657 442.754 385.227 437.933 385.727 C 437.141 385.809 436.866 386.214 436.662 386.943 C 432.453 402.009 430.247 417.36 430.029 432.998 C 430.016 433.94 430.015 434.84 428.85 435.133 C 427.475 435.479 426.442 434.694 426.487 433.148 C 426.688 426.257 426.938 419.367 427.189 412.478 C 427.229 411.377 427.36 410.279 427.459 409.061 Z " fill="rgb(0,0,0)"/><path d=" M 617.402 404.283 C 617.947 403.276 618.426 402.227 619.05 401.272 C 620.278 399.392 622.055 399.538 622.999 401.59 C 623.382 402.424 623.611 403.328 624.015 404.508 C 624.427 402.949 624.699 401.672 625.11 400.442 C 625.458 399.397 625.85 398.335 626.428 397.407 C 627.482 395.716 629.274 395.843 630.193 397.629 C 630.544 398.31 630.729 399.075 630.902 399.557 C 631.809 399.433 632.67 399.117 633.447 399.259 C 634.465 399.446 634.886 400.386 634.344 401.259 C 633.486 402.639 632.503 403.965 631.417 405.174 C 630.501 406.194 629.14 405.881 627.916 405.932 C 627.519 405.948 627.055 406.149 626.764 406.419 C 626.382 406.774 626.15 407.286 625.838 407.72 C 624.173 410.034 621.741 410.305 619.563 408.333 C 619.023 409.202 618.533 410.087 617.951 410.906 C 617.207 411.954 616.382 413.075 614.904 412.835 C 613.389 412.589 612.968 411.216 612.747 409.977 C 612.418 408.127 612.31 406.236 612.134 404.36 C 612.085 403.84 612.127 403.31 612.127 402.726 C 610.169 402.619 608.308 402.517 606.414 402.413 C 606.284 403.437 606.218 404.374 606.038 405.29 C 605.659 407.224 604.657 408.801 603.047 409.944 C 600.88 411.484 599.499 411.316 597.486 409.255 C 596.898 410.208 596.353 411.151 595.751 412.056 C 594.409 414.073 593.087 416.105 591.659 418.06 C 591.012 418.944 590.197 419.738 589.344 420.434 C 587.113 422.256 585.207 421.64 584.486 418.838 C 584.192 417.698 584.004 416.471 584.087 415.306 C 584.364 411.378 584.783 407.459 585.151 403.538 C 585.182 403.215 585.242 402.895 585.089 402.454 C 584.875 402.792 584.652 403.124 584.448 403.468 C 582.688 406.436 580.945 409.414 579.163 412.37 C 578.764 413.032 578.306 413.69 577.753 414.223 C 576.252 415.67 574.35 415.234 573.634 413.28 C 573.415 412.681 573.267 411.966 573.372 411.354 C 574.102 407.112 574.883 402.878 575.703 398.653 C 575.942 397.422 576.796 396.769 578.077 396.72 C 580.029 396.644 581.054 397.941 580.535 399.838 C 580.091 401.462 579.643 403.085 579.214 404.712 C 579.159 404.921 579.206 405.156 579.206 405.669 C 579.554 405.099 579.77 404.77 579.962 404.427 C 582.069 400.664 584.161 396.892 586.281 393.135 C 587.115 391.658 587.934 391.196 589.099 391.439 C 590.303 391.69 591.062 392.525 591.126 394.175 C 591.192 395.846 591.07 397.54 590.863 399.204 C 590.251 404.135 589.544 409.054 588.907 413.982 C 588.81 414.728 588.892 415.497 588.891 416.651 C 589.459 415.851 589.869 415.361 590.183 414.817 C 592.339 411.082 594.47 407.333 596.62 403.595 C 597.541 401.993 598.364 400.312 599.47 398.848 C 600.205 397.877 601.265 397.031 602.356 396.479 C 603.8 395.749 605.068 396.508 605.713 397.993 C 605.913 398.454 606.449 398.947 606.925 399.073 C 607.908 399.333 608.951 399.386 609.974 399.47 C 611.508 399.595 612.826 399.548 613.355 397.57 C 613.728 396.179 615.338 395.706 616.609 396.242 C 618.022 396.838 618.331 397.962 617.858 399.61 C 617.427 401.111 617.27 402.69 616.993 404.235 C 617.129 404.251 617.266 404.267 617.402 404.283 Z " fill="rgb(0,0,0)"/><path d=" M 552.2 373.374 C 551.488 379.408 550.774 385.443 550.045 391.475 C 549.997 391.866 549.936 392.379 549.679 392.604 C 546.924 395.009 544.025 397.214 540.562 398.69 C 543.727 389.344 547.501 380.294 552.35 371.631 C 552.301 372.212 552.268 372.795 552.2 373.374 Z  M 578.817 420.41 C 575.924 418.894 573.554 416.755 571.628 414.143 C 570.264 412.293 569.03 410.348 567.681 408.486 C 566.189 406.426 564.695 404.363 563.088 402.393 C 561.013 399.848 558.326 398.272 555.038 397.789 C 554.81 397.756 554.594 397.648 554.144 397.498 C 554.495 396.416 554.513 395.054 555.202 394.431 C 562.654 387.688 569.245 380.121 576.202 372.904 C 580.615 368.325 585.305 364.011 589.88 359.588 C 590.205 359.274 590.606 359.039 590.972 358.767 C 590.971 358.774 590.969 358.781 590.968 358.788 C 591.079 358.619 591.196 358.453 591.314 358.289 C 589.683 358.287 588.095 358.29 586.51 358.314 C 586.155 358.32 585.753 358.601 585.46 358.855 C 583.227 360.795 580.931 362.674 578.813 364.734 C 571.626 371.727 564.506 378.787 557.356 385.818 C 556.903 386.264 556.419 386.68 555.7 387.338 C 555.765 386.595 555.789 386.204 555.834 385.816 C 556.422 380.676 557.053 375.539 557.578 370.392 C 557.718 369.019 557.685 367.59 557.471 366.228 C 557.141 364.124 555.219 363.296 553.402 364.437 C 552.621 364.928 551.901 365.614 551.359 366.361 C 550.397 367.686 549.421 369.048 548.749 370.53 C 545.477 377.745 542.257 384.984 539.123 392.259 C 538.119 394.59 537.385 397.043 536.625 399.47 C 536.177 400.9 536.622 401.504 538.047 401.912 C 538.361 402.002 538.604 402.315 538.907 402.473 C 539.67 402.87 540.449 403.549 541.223 403.551 C 542.809 403.555 544.395 403.191 545.981 402.976 C 546.888 402.854 547.794 402.728 548.77 402.593 C 548.745 403.147 548.749 403.474 548.713 403.797 C 547.686 412.938 546.66 422.079 545.623 431.218 C 545.446 432.771 545.82 433.484 546.975 433.647 C 548.315 433.835 548.966 433.251 549.199 431.686 C 550.233 424.74 551.27 417.795 552.312 410.85 C 552.731 408.056 553.167 405.265 553.611 402.371 C 556.166 402.685 558.219 403.814 559.852 405.519 C 562.205 407.976 564.457 410.543 566.591 413.192 C 569.152 416.37 571.74 419.497 575.088 421.89 C 575.852 422.436 576.656 422.981 577.524 423.311 C 578.345 423.624 579.318 423.602 579.762 422.618 C 580.212 421.621 579.763 420.906 578.817 420.41 Z " fill="rgb(0,0,0)"/><path d=" M 510.99 382.067 C 510.566 383.021 510.146 383.976 509.719 384.928 C 506.444 392.234 503.188 399.548 499.875 406.837 C 499.266 408.176 498.454 409.427 497.671 410.679 C 497.375 411.152 496.957 411.601 496.493 411.907 C 495.035 412.868 493.809 412.383 493.477 410.672 C 493.268 409.592 493.149 408.464 493.205 407.369 C 493.444 402.737 493.751 398.108 494.056 393.48 C 494.561 385.816 495.107 378.153 494.461 370.469 C 494.41 369.868 494.313 369.27 494.238 368.67 C 494.129 368.636 494.021 368.601 493.912 368.567 C 493.519 369.385 493.054 370.177 492.744 371.025 C 489.842 378.967 486.963 386.917 484.086 394.867 C 481.433 402.197 478.833 409.547 476.107 416.85 C 475.525 418.407 474.579 419.853 473.638 421.24 C 473.185 421.908 472.425 422.475 471.68 422.819 C 470.082 423.556 468.628 423.054 468.07 421.386 C 467.398 419.379 466.801 417.277 466.64 415.181 C 465.993 406.735 466.752 398.365 468.521 390.09 C 468.74 389.064 469.176 388.054 469.679 387.127 C 470.212 386.144 471.628 385.877 472.744 386.381 C 473.669 386.799 474.245 387.907 473.956 388.957 C 471.875 396.511 471.546 404.258 471.377 412.022 C 471.347 413.417 471.416 414.814 471.462 416.209 C 471.476 416.637 471.568 417.061 471.625 417.487 C 471.728 417.506 471.831 417.525 471.934 417.544 C 472.443 416.486 473.054 415.465 473.443 414.366 C 476.195 406.59 478.814 398.766 481.646 391.019 C 484.589 382.965 487.739 374.986 490.758 366.959 C 491.237 365.687 491.969 365.189 493.332 365.359 C 494.385 365.491 495.477 365.476 496.534 365.363 C 497.632 365.247 498.017 365.772 498.124 366.711 C 498.457 369.645 499.063 372.581 499.062 375.515 C 499.058 383.479 498.795 391.443 498.637 399.407 C 498.626 399.971 498.635 400.535 498.833 401.18 C 499.011 400.799 499.188 400.418 499.366 400.037 C 502.642 393.005 505.899 385.964 509.213 378.95 C 509.824 377.656 510.655 376.465 511.411 375.243 C 511.735 374.721 512.091 374.209 512.497 373.749 C 513.338 372.795 514.347 371.912 515.685 372.355 C 517.026 372.8 517.088 374.174 516.941 375.288 C 516.391 379.473 515.914 383.684 515.031 387.805 C 513.457 395.147 511.496 402.407 509.912 409.748 C 508.923 414.331 508.543 419.008 509.184 423.709 C 509.575 426.577 510.502 429.108 513.096 430.795 C 513.504 431.06 513.882 432.142 513.684 432.406 C 513.285 432.938 512.514 433.3 511.83 433.471 C 511.456 433.565 510.923 433.17 510.503 432.924 C 506.929 430.837 505.491 427.459 504.779 423.594 C 503.739 417.947 504.298 412.346 505.466 406.832 C 507.03 399.446 508.917 392.128 510.662 384.78 C 510.869 383.91 511.053 383.034 511.248 382.16 C 511.162 382.129 511.076 382.098 510.99 382.067 Z " fill="rgb(0,0,0)"/></g><g><path d=" M 466.306 341.579 C 465.776 337.715 465.131 333.867 464.671 329.994 C 463.189 317.505 461.772 305.008 460.328 292.513 C 459.013 281.137 457.698 269.761 456.38 258.385 C 454.924 245.826 453.46 233.268 452.007 220.709 C 450.851 210.714 449.716 200.716 448.525 190.725 C 448.506 190.568 448.436 190.38 448.341 190.199 L 444.1 190.199 C 443.884 190.382 443.671 190.591 443.464 190.86 C 433.154 204.264 422.736 217.577 412.349 230.916 C 409.245 234.901 406.137 238.882 402.964 242.952 C 402.509 242.433 402.166 242.048 401.829 241.655 C 390.927 228.954 380.025 216.253 369.124 203.551 C 365.405 199.219 361.648 194.921 357.996 190.529 C 357.895 190.408 357.791 190.301 357.687 190.199 L 354.318 190.199 C 354.112 190.686 353.984 191.338 353.916 191.838 C 353.448 195.313 353.095 198.806 352.677 202.289 C 350.078 223.909 347.474 245.529 344.87 267.148 C 342.099 290.148 339.325 313.147 336.558 336.147 C 336.262 338.605 336.004 341.069 335.721 343.595 L 337.313 343.595 C 337.313 343.596 337.313 343.598 337.313 343.599 L 376.401 343.599 C 376.156 342.838 375.935 342.147 375.712 341.457 C 371.123 327.239 366.535 313.021 361.946 298.803 C 361.348 296.95 360.787 295.222 360.262 293.61 C 354.107 274.74 351.066 254.975 351.555 235.133 C 351.558 235.001 351.561 234.869 351.565 234.736 C 362.471 247.145 373.193 259.346 384.022 271.667 C 395.72 256.852 407.278 242.214 419.107 227.231 C 419.249 228.225 419.321 228.669 419.375 229.115 C 420.188 235.951 420.997 242.788 421.811 249.624 C 423.266 261.85 424.726 274.075 426.181 286.301 C 427.637 298.527 429.121 310.749 430.53 322.981 C 431.315 329.79 431.972 336.616 432.704 343.599 L 466.318 343.599 C 466.318 342.865 466.392 342.21 466.306 341.579 Z " fill="rgb(0,0,0)"/><path d=" M 278.098 339.488 C 278.098 300.947 278.073 262.406 278.119 223.866 C 278.129 215.656 278.563 207.445 281.152 199.535 C 282.066 196.744 283.33 194.057 284.52 191.373 L 244.629 191.373 C 245.94 194.524 247.339 197.647 248.323 200.884 C 250.646 208.529 250.975 216.44 250.987 224.341 C 251.029 252.09 251.036 279.84 250.973 307.589 C 250.962 312.454 250.734 317.333 250.274 322.178 C 249.665 328.584 248.291 334.853 245.117 340.637 C 244.572 341.631 243.949 342.587 243.339 343.599 L 328.746 343.599 C 328.972 333.916 329.195 324.371 329.423 314.63 C 315.218 328.891 298.444 337.902 278.098 341.744 L 278.098 339.488 Z " fill="rgb(0,0,0)"/><path d=" M 569.123 192.069 C 569.353 191.832 569.595 191.606 569.83 191.373 L 568.339 191.373 L 530.476 191.373 L 528.447 191.373 C 528.962 192.641 529.486 193.905 529.997 195.173 C 528.557 205.483 525.828 215.468 521.91 225.141 C 516.697 238.011 509.683 249.768 500.933 260.436 C 500.762 260.645 500.64 260.896 500.495 261.128 C 500.401 261.06 500.307 260.992 500.214 260.924 L 500.214 213.991 C 500.606 209.176 501.38 204.405 502.871 199.736 C 503.785 196.877 505.049 194.123 506.239 191.373 L 500.214 191.373 L 471.794 191.373 L 466.348 191.373 C 467.659 194.601 469.058 197.801 470.042 201.118 C 470.842 203.814 471.399 206.544 471.794 209.294 L 471.794 343.582 L 500.256 343.582 L 500.256 342.314 C 500.256 316.283 500.259 290.253 500.237 264.222 C 500.237 263.443 500.48 262.912 500.994 262.382 C 509.096 254.035 517.185 245.677 525.273 237.317 C 526.414 236.137 527.534 234.936 528.663 233.744 C 528.745 233.786 528.827 233.827 528.909 233.868 L 528.909 343.599 L 567.998 343.599 C 567.753 342.838 567.531 342.148 567.308 341.457 C 562.72 327.239 558.131 313.021 553.543 298.803 C 550.099 288.133 546.653 277.464 543.213 266.793 C 539.439 255.087 535.676 243.378 531.889 231.677 C 531.687 231.052 531.71 230.65 532.203 230.142 C 544.521 217.463 556.814 204.758 569.123 192.069 Z " fill="rgb(0,0,0)"/></g></g></g></svg>